<svg width="56" height="59" viewBox="0 0 56 59" fill="none" xmlns="http://www.w3.org/2000/svg">
<path d="M5.1259 27.2428C5.04025 26.8919 5.03395 26.5256 5.1075 26.1719C5.18104 25.8181 5.33249 25.4861 5.55034 25.2011C5.7682 24.916 6.04673 24.6855 6.36481 24.5268C6.68289 24.3682 7.03216 24.2857 7.38609 24.2856H48.023C48.3769 24.2857 48.7262 24.3682 49.0442 24.5268C49.3623 24.6855 49.6409 24.916 49.8587 25.2011C50.0766 25.4861 50.228 25.8181 50.3016 26.1719C50.3751 26.5256 50.3688 26.8919 50.2831 27.2428L46.0633 44.488C45.8113 45.5182 45.2296 46.4328 44.4105 47.0864C43.5915 47.7399 42.5822 48.095 41.543 48.0952H13.8661C12.8269 48.095 11.8176 47.7399 10.9985 47.0864C10.1795 46.4328 9.59771 45.5182 9.3457 44.488L5.1259 27.2452V27.2428Z" stroke="#F2DA02" stroke-width="2.66667" stroke-linejoin="round"/>
<path d="M20.7139 33.8096V38.5715" stroke="#F2DA02" stroke-width="2.66667" stroke-linecap="round"/>
<path d="M34.6943 33.8096V38.5715" stroke="#F2DA02" stroke-width="2.66667" stroke-linecap="round"/>
<path d="M13.7236 24.2857L23.044 10" stroke="#F2DA02" stroke-width="2.66667" stroke-linecap="round"/>
<path d="M41.6846 24.2857L32.3643 10" stroke="#F2DA02" stroke-width="2.66667" stroke-linecap="round"/>
</svg>
