<svg width="12" height="11" viewBox="0 0 12 11" fill="none" xmlns="http://www.w3.org/2000/svg">
<g clip-path="url(#clip0_930_622)">
<path d="M5.93313 0.631668C3.06622 0.631668 0.741638 2.61155 0.741638 5.05334C0.741638 7.49514 3.06622 9.47502 5.93313 9.47502C8.80004 9.47502 11.1246 7.49514 11.1246 5.05334C11.1246 2.61155 8.80004 0.631668 5.93313 0.631668ZM5.93313 8.72492C3.55292 8.72492 1.62234 7.0806 1.62234 5.05334C1.62234 3.02608 3.55292 1.38177 5.93313 1.38177C8.31334 1.38177 10.2439 3.02608 10.2439 5.05334C10.2439 7.0806 8.31334 8.72492 5.93313 8.72492ZM5.99803 3.46727C6.6122 3.46727 7.02937 3.80087 7.07572 4.29041C7.0792 4.33186 7.11976 4.36344 7.16843 4.36344H7.82548C7.85561 4.36344 7.87994 4.34272 7.87994 4.31706C7.87994 3.46134 7.08731 2.86225 5.99455 2.86225C4.72101 2.86225 3.98632 3.59459 3.98632 4.80463V5.32082C3.98632 6.52197 4.72101 7.24444 5.99455 7.24444C7.08384 7.24444 7.87994 6.6641 7.87994 5.84885C7.87994 5.82319 7.85561 5.80246 7.82548 5.80246H7.16727C7.1186 5.80246 7.0792 5.83405 7.07457 5.87451C7.0259 6.32951 6.60988 6.64238 5.99687 6.64238C5.24016 6.64238 4.81372 6.16962 4.81372 5.32378V4.80463C4.81488 3.94595 5.24248 3.46727 5.99803 3.46727Z" fill="white"/>
</g>
<defs>
<clipPath id="clip0_930_622">
<rect width="11.8663" height="10.1067" fill="white"/>
</clipPath>
</defs>
</svg>
