<?xml version="1.0" encoding="UTF-8"?>
<svg xmlns="http://www.w3.org/2000/svg" xmlns:xlink="http://www.w3.org/1999/xlink" width="3000px" height="1000px" viewBox="0 0 2999 1000" version="1.1">
<g id="surface1">
<path style=" stroke:none;fill-rule:nonzero;fill:rgb(0%,0%,0%);fill-opacity:1;" d="M 95.316406 70.777344 C 75.886719 74.296875 59.09375 83.171875 45.179688 97.167969 C 29.425781 113.003906 20.550781 132.199219 18.390625 154.75 C 17.273438 166.828125 17.273438 823.738281 18.390625 836.53125 C 20.390625 859.085938 29.507812 878.757812 45.179688 894.515625 C 59.414062 908.828125 76.605469 917.707031 96.199219 920.90625 C 102.675781 921.945312 267.640625 922.105469 1499.339844 922.105469 C 2731.039062 922.105469 2896.003906 921.945312 2902.484375 920.90625 C 2922.074219 917.707031 2939.265625 908.828125 2953.5 894.515625 C 2969.171875 878.757812 2978.289062 859.085938 2980.289062 836.53125 C 2981.40625 823.816406 2981.40625 167.867188 2980.289062 155.148438 C 2978.289062 132.4375 2969.332031 113.164062 2953.5 97.167969 C 2939.507812 83.011719 2922.632812 74.214844 2903.203125 70.777344 C 2896.804688 69.738281 2756.707031 69.578125 1498.621094 69.65625 C 346.488281 69.738281 100.117188 69.898438 95.316406 70.777344 Z M 1147.574219 205.375 C 1154.53125 207.214844 1161.007812 211.210938 1166.605469 217.210938 C 1171.324219 222.167969 1175.960938 230.167969 1174.921875 231.207031 C 1174.203125 231.925781 1160.6875 237.523438 1159.730469 237.523438 C 1159.410156 237.523438 1158.210938 235.925781 1157.171875 233.925781 C 1154.773438 229.445312 1150.054688 225.128906 1145.175781 222.890625 C 1139.816406 220.410156 1128.703125 220.488281 1123.105469 222.96875 C 1118.386719 225.128906 1113.351562 229.6875 1111.832031 233.285156 C 1110.230469 236.964844 1110.472656 242.640625 1112.308594 246.242188 C 1115.269531 252.160156 1122.144531 256.316406 1137.820312 261.597656 C 1166.6875 271.511719 1177.722656 282.070312 1179.242188 301.421875 C 1180.441406 317.578125 1173.164062 330.613281 1158.851562 337.8125 C 1143.417969 345.570312 1128.144531 345.648438 1112.710938 337.972656 C 1104.074219 333.652344 1098.398438 328.855469 1094 322.058594 C 1091.121094 317.738281 1086.882812 307.421875 1087.601562 306.78125 C 1088.242188 306.300781 1102.792969 300.703125 1103.355469 300.703125 C 1103.753906 300.703125 1104.472656 302.0625 1104.953125 303.742188 C 1106.3125 308.140625 1111.511719 315.980469 1115.1875 318.9375 C 1116.867188 320.378906 1120.308594 322.535156 1122.707031 323.738281 C 1126.625 325.65625 1127.984375 325.894531 1135.101562 325.894531 C 1142.21875 325.894531 1143.65625 325.65625 1147.894531 323.65625 C 1150.535156 322.375 1153.730469 320.457031 1154.933594 319.257812 C 1162.6875 311.898438 1162.929688 298.144531 1155.492188 290.46875 C 1151.492188 286.308594 1142.695312 281.828125 1129.902344 277.511719 C 1104.234375 268.875 1093.359375 258.558594 1092.480469 241.84375 C 1091.917969 230.726562 1095.277344 222.570312 1103.835938 214.492188 C 1108.550781 210.011719 1114.230469 206.894531 1120.546875 205.132812 C 1126.464844 203.535156 1141.019531 203.695312 1147.574219 205.375 Z M 1390.988281 205.855469 C 1415.378906 212.570312 1435.046875 234.003906 1439.847656 258.957031 C 1441.367188 266.792969 1441.285156 281.667969 1439.6875 289.347656 C 1436.566406 304.703125 1427.929688 318.777344 1415.378906 328.933594 C 1401.304688 340.292969 1382.429688 345.410156 1363.398438 343.171875 C 1339.730469 340.292969 1320.058594 325.816406 1309.902344 303.742188 C 1305.027344 293.1875 1303.824219 287.109375 1303.90625 273.113281 C 1303.984375 259.117188 1305.425781 252.320312 1310.542969 241.921875 C 1320.457031 222.007812 1338.210938 208.574219 1360.203125 204.414062 C 1364.839844 203.535156 1386.269531 204.574219 1390.988281 205.855469 Z M 2049.898438 205.132812 C 2056.933594 206.972656 2062.613281 210.09375 2067.96875 215.132812 C 2072.609375 219.449219 2078.285156 227.847656 2078.285156 230.328125 C 2078.285156 231.207031 2075.726562 232.644531 2070.449219 234.804688 L 2062.613281 238.082031 L 2060.292969 233.765625 C 2053.417969 220.648438 2033.984375 216.730469 2021.351562 225.925781 C 2016.632812 229.445312 2014.074219 234.085938 2014.074219 239.523438 C 2014.074219 249.28125 2021.03125 254.878906 2042.699219 262.316406 C 2069.488281 271.511719 2079.964844 281.269531 2082.285156 299.265625 C 2083.722656 310.941406 2080.445312 322.136719 2073.246094 329.816406 C 2066.53125 337.09375 2054.214844 342.449219 2041.902344 343.488281 C 2027.269531 344.691406 2011.273438 338.210938 2001.121094 326.933594 C 1997.28125 322.695312 1992.324219 313.578125 1991.523438 309.101562 C 1991.042969 306.703125 1991.125 306.703125 1998.640625 303.664062 C 2002.796875 301.902344 2006.558594 300.785156 2007.035156 301.023438 C 2007.4375 301.34375 2007.996094 302.542969 2008.316406 303.902344 C 2009.035156 307.261719 2014.3125 315.019531 2018.3125 318.617188 C 2020.152344 320.296875 2023.75 322.617188 2026.226562 323.816406 C 2030.144531 325.65625 2031.746094 325.894531 2038.703125 325.894531 C 2045.660156 325.894531 2047.257812 325.65625 2051.097656 323.816406 C 2060.375 319.496094 2064.292969 313.738281 2064.210938 304.703125 C 2064.050781 291.828125 2057.335938 285.828125 2034.144531 277.910156 C 2004.796875 267.835938 1995.28125 257.917969 1996.082031 238.082031 C 1996.242188 231.847656 1996.722656 229.925781 1998.878906 225.367188 C 2003.4375 215.769531 2012.875 208.171875 2023.910156 205.214844 C 2029.828125 203.613281 2043.898438 203.613281 2049.898438 205.132812 Z M 967.175781 207.132812 C 983.007812 208.972656 994.921875 214.089844 1004.835938 223.367188 C 1014.59375 232.484375 1019.949219 241.441406 1023.308594 254.238281 C 1025.789062 263.835938 1026.109375 280.628906 1024.027344 290.148438 C 1018.671875 314.539062 1002.4375 331.652344 978.371094 338.371094 C 972.453125 340.050781 969.894531 340.210938 944.222656 340.53125 L 916.398438 340.851562 L 916.398438 206.332031 L 938.226562 206.332031 C 950.140625 206.332031 963.257812 206.734375 967.175781 207.132812 Z M 1066.730469 273.511719 L 1066.730469 340.691406 L 1049.136719 340.691406 L 1049.136719 206.332031 L 1066.730469 206.332031 Z M 1261.84375 208.253906 C 1275.039062 212.492188 1285.355469 222.410156 1289.191406 234.566406 C 1291.429688 241.441406 1291.351562 252.078125 1289.113281 259.277344 C 1285.355469 271.035156 1273.917969 281.511719 1260.644531 285.269531 C 1258.007812 286.070312 1250.488281 286.546875 1238.894531 286.867188 L 1221.0625 287.347656 L 1221.0625 340.691406 L 1203.46875 340.691406 L 1203.46875 206.175781 L 1230.5 206.492188 C 1253.527344 206.8125 1258.085938 207.054688 1261.84375 208.253906 Z M 1518.210938 258.15625 L 1550.359375 309.5 L 1550.199219 258.15625 L 1550.117188 206.734375 L 1559.152344 206.492188 L 1568.109375 206.253906 L 1568.109375 340.691406 L 1558.753906 340.691406 L 1549.316406 340.609375 L 1519.089844 292.066406 C 1502.539062 265.355469 1487.425781 241.121094 1485.507812 238.164062 L 1482.148438 232.804688 L 1482.46875 286.707031 L 1482.707031 340.691406 L 1464.15625 340.691406 L 1464.15625 274.074219 C 1464.15625 237.363281 1464.394531 207.132812 1464.714844 206.8125 C 1465.035156 206.574219 1469.914062 206.414062 1475.671875 206.492188 L 1486.066406 206.734375 Z M 1615.289062 273.511719 L 1615.289062 340.691406 L 1597.695312 340.691406 L 1597.695312 206.332031 L 1615.289062 206.332031 Z M 1700.851562 207.132812 C 1708.289062 208.332031 1717.085938 212.8125 1722.523438 218.332031 C 1730.117188 225.925781 1733.316406 234.40625 1732.675781 245.363281 C 1732.117188 255.359375 1727.398438 263.515625 1719.164062 268.792969 L 1715.164062 271.433594 L 1719.402344 273.433594 C 1721.640625 274.550781 1725.402344 277.351562 1727.71875 279.511719 C 1743.074219 294.464844 1739.875 320.136719 1721.082031 332.933594 C 1710.445312 340.210938 1710.289062 340.292969 1675.902344 340.53125 L 1645.675781 340.769531 L 1645.675781 206.332031 L 1670.703125 206.332031 C 1684.378906 206.332031 1697.972656 206.734375 1700.851562 207.132812 Z M 1777.617188 265.113281 L 1777.617188 323.894531 L 1835.191406 323.894531 L 1835.191406 340.691406 L 1760.023438 340.691406 L 1760.023438 206.332031 L 1777.617188 206.332031 Z M 1934.347656 215.132812 L 1934.347656 223.929688 L 1874.375 223.929688 L 1874.375 265.515625 L 1928.75 265.515625 L 1928.75 282.308594 L 1874.375 282.308594 L 1874.375 323.894531 L 1934.347656 323.894531 L 1934.347656 340.691406 L 1855.984375 340.691406 L 1855.984375 206.332031 L 1934.347656 206.332031 Z M 2121.464844 251.441406 C 2121.464844 278.710938 2121.785156 298.144531 2122.265625 300.785156 C 2124.183594 311.019531 2130.664062 319.976562 2138.898438 323.738281 C 2144.816406 326.375 2156.570312 327.175781 2163.207031 325.175781 C 2172.082031 322.617188 2178.722656 316.457031 2182.398438 307.339844 C 2184.238281 302.703125 2184.238281 302.703125 2184.636719 254.71875 L 2185.039062 206.734375 L 2194.074219 206.492188 L 2203.109375 206.253906 L 2202.871094 254.480469 C 2202.550781 308.140625 2202.710938 306.382812 2196.875 318.296875 C 2194.792969 322.535156 2192.316406 325.894531 2188.316406 329.972656 C 2179.519531 338.773438 2170.804688 342.53125 2156.730469 343.488281 C 2133.382812 345.167969 2114.03125 332.453125 2106.191406 310.300781 C 2104.273438 305.101562 2104.273438 305.023438 2104.035156 255.679688 L 2103.792969 206.332031 L 2121.464844 206.332031 Z M 2282.59375 207.132812 C 2295.628906 208.972656 2308.34375 218.25 2313.941406 229.925781 C 2316.582031 235.605469 2316.898438 236.882812 2317.21875 244.640625 C 2317.621094 254.320312 2316.179688 260.15625 2311.460938 267.433594 C 2306.503906 275.113281 2296.03125 282.949219 2288.59375 284.390625 C 2287.3125 284.707031 2286.195312 285.269531 2286.195312 285.667969 C 2286.195312 286.070312 2294.351562 298.144531 2304.265625 312.539062 C 2314.261719 326.933594 2322.578125 339.171875 2322.738281 339.652344 C 2323.058594 340.449219 2320.660156 340.691406 2312.503906 340.691406 L 2301.785156 340.609375 L 2283.953125 313.898438 L 2266.203125 287.109375 L 2247.8125 287.109375 L 2247.8125 340.691406 L 2229.417969 340.691406 L 2229.417969 274.074219 C 2229.417969 237.363281 2229.660156 207.132812 2229.976562 206.894531 C 2230.777344 206.015625 2276.359375 206.253906 2282.59375 207.132812 Z M 266.683594 212.410156 C 268.921875 213.132812 272.359375 214.570312 274.4375 215.609375 C 276.4375 216.652344 352.003906 259.4375 442.367188 310.78125 C 532.644531 362.042969 630.683594 417.707031 660.109375 434.5 C 712.964844 464.492188 719.125 468.171875 724.320312 473.527344 C 731.4375 480.726562 734.238281 487.042969 734.316406 496 C 734.398438 501.519531 734.078125 502.71875 731.4375 508.078125 C 729.117188 512.714844 727.039062 515.355469 722.5625 519.59375 C 717.363281 524.472656 710.488281 528.550781 659.628906 557.421875 C 628.285156 575.257812 601.015625 590.609375 599.015625 591.652344 C 595.578125 593.410156 594.21875 594.210938 587.5 598.207031 C 585.023438 599.648438 584.863281 599.648438 584.78125 598.289062 C 584.703125 597.25 586.863281 595.648438 592.21875 592.609375 C 596.378906 590.210938 599.734375 588.132812 599.734375 587.890625 C 599.734375 587.570312 579.183594 566.859375 554.15625 541.828125 L 508.574219 496.242188 L 370.238281 634.597656 L 231.816406 772.953125 L 230.140625 770.953125 C 227.179688 767.355469 224.0625 760.15625 222.78125 753.917969 C 221.664062 748.480469 221.503906 722.25 221.503906 495.28125 C 221.503906 218.730469 221.183594 237.445312 226.21875 226.886719 C 229.097656 220.890625 235.015625 214.972656 240.535156 212.570312 C 247.410156 209.53125 258.046875 209.453125 266.683594 212.410156 Z M 1091.199219 432.980469 C 1113.667969 437.699219 1133.902344 447.457031 1151.8125 462.171875 C 1154.933594 464.730469 1158.289062 467.769531 1159.25 468.808594 L 1161.007812 470.730469 L 1146.855469 484.804688 L 1132.703125 498.960938 L 1125.90625 493.441406 C 1085.523438 460.734375 1026.109375 463.292969 988.523438 499.359375 C 979.488281 507.996094 972.453125 517.515625 967.175781 528.230469 C 959.65625 543.507812 956.539062 555.664062 955.820312 573.015625 C 953.421875 630.117188 995.722656 678.503906 1051.855469 682.902344 C 1079.046875 684.980469 1104.953125 677.941406 1123.90625 663.148438 C 1138.699219 651.632812 1146.535156 640.675781 1151.734375 624.121094 C 1153.332031 619.160156 1156.292969 606.046875 1156.292969 604.125 C 1156.292969 603.964844 1134.699219 603.808594 1108.3125 603.808594 L 1060.332031 603.808594 L 1060.332031 563.820312 L 1128.144531 563.980469 L 1195.875 564.21875 L 1196.433594 567.816406 C 1197.710938 576.457031 1198.03125 593.410156 1197.152344 603.007812 C 1193.792969 637.714844 1182.441406 663.386719 1161.089844 684.582031 C 1141.097656 704.496094 1117.90625 716.492188 1089.679688 721.527344 C 1081.605469 722.96875 1076.804688 723.289062 1061.933594 723.367188 C 1043.0625 723.367188 1038.664062 722.890625 1023.949219 719.210938 C 971.011719 706.09375 928.472656 663.546875 915.675781 611.164062 C 912.320312 597.488281 911.277344 586.851562 911.839844 571.65625 C 912.476562 550.785156 916.636719 533.75 925.59375 515.195312 C 940.625 483.925781 964.773438 459.933594 996.519531 444.65625 C 1007.875 439.21875 1017.472656 435.941406 1028.746094 433.542969 C 1041.863281 430.742188 1046.339844 430.34375 1064.332031 430.664062 C 1079.046875 430.902344 1082.964844 431.222656 1091.199219 432.980469 Z M 1876.773438 579.015625 L 1876.773438 718.171875 L 1835.191406 718.171875 L 1835.191406 439.859375 L 1876.773438 439.859375 Z M 2271.878906 440.660156 C 2310.421875 445.058594 2341.050781 470.488281 2350.164062 505.519531 C 2352.324219 514.074219 2353.125 528.949219 2351.84375 538.546875 C 2347.285156 572.777344 2322.179688 599.808594 2285.394531 610.042969 L 2277.796875 612.125 L 2240.855469 612.445312 L 2203.828125 612.683594 L 2203.828125 718.171875 L 2161.449219 718.171875 L 2161.449219 439.859375 L 2213.265625 439.859375 C 2241.972656 439.859375 2268.042969 440.257812 2271.878906 440.660156 Z M 2417.335938 579.015625 L 2417.335938 718.171875 L 2374.953125 718.171875 L 2374.953125 439.859375 L 2417.335938 439.859375 Z M 1316.21875 535.027344 C 1362.519531 539.90625 1396.105469 573.175781 1401.0625 618.921875 C 1404.582031 651.472656 1391.628906 683.300781 1366.757812 703.136719 C 1355.882812 711.773438 1344.929688 717.128906 1329.894531 721.210938 C 1322.859375 723.046875 1320.859375 723.289062 1306.625 723.289062 C 1292.390625 723.289062 1290.390625 723.046875 1283.355469 721.210938 C 1263.605469 715.851562 1249.210938 707.453125 1236.496094 693.777344 C 1216.90625 672.824219 1208.347656 644.035156 1212.746094 614.363281 C 1219.0625 571.417969 1252.410156 539.746094 1296.070312 535.109375 C 1304.867188 534.148438 1307.664062 534.148438 1316.21875 535.027344 Z M 1523.25 535.027344 C 1539.242188 536.707031 1555.636719 542.546875 1568.191406 551.105469 C 1580.585938 559.5 1594.019531 575.414062 1600.015625 588.851562 C 1610.25 611.5625 1611.050781 640.273438 1602.175781 663.867188 C 1590.578125 694.816406 1562.910156 717.128906 1529.328125 722.648438 C 1519.730469 724.167969 1502.140625 723.847656 1493.183594 721.847656 C 1475.269531 717.929688 1460.316406 710.09375 1447.523438 697.777344 C 1438.648438 689.300781 1433.769531 682.820312 1428.570312 672.183594 C 1421.453125 657.949219 1418.574219 645.234375 1418.574219 628.757812 C 1418.574219 602.765625 1427.851562 579.972656 1445.683594 562.140625 C 1466.074219 541.828125 1493.984375 532.070312 1523.25 535.027344 Z M 1733.796875 536.707031 C 1742.511719 538.789062 1753.546875 544.226562 1760.265625 549.742188 C 1763.222656 552.222656 1765.621094 554.621094 1765.621094 555.023438 C 1765.621094 555.503906 1766.023438 555.820312 1766.421875 555.820312 C 1766.902344 555.820312 1767.222656 552.78125 1767.222656 548.222656 L 1767.222656 540.628906 L 1807.203125 540.628906 L 1807.203125 627.160156 C 1807.203125 716.652344 1806.882812 726.566406 1803.847656 740.5625 C 1796.570312 774.230469 1775.617188 797.105469 1744.59375 805.261719 C 1724.921875 810.378906 1701.730469 809.5 1684.058594 802.863281 C 1669.183594 797.34375 1654.070312 785.667969 1644.078125 772.152344 C 1640.398438 767.195312 1633.839844 755.839844 1633.519531 753.917969 C 1633.359375 752.71875 1636.398438 751.121094 1651.191406 744.960938 C 1661.109375 740.804688 1669.183594 737.523438 1669.265625 737.605469 C 1669.34375 737.683594 1670.542969 739.921875 1672.0625 742.5625 C 1677.980469 753.277344 1685.578125 760.875 1695.414062 765.835938 C 1713.804688 775.113281 1738.675781 771.59375 1752.507812 757.757812 C 1762.425781 747.921875 1766.34375 736.40625 1766.980469 715.371094 L 1767.382812 701.777344 L 1763.945312 705.054688 C 1755.386719 713.132812 1747.628906 717.609375 1736.277344 721.128906 C 1729.878906 723.046875 1728.121094 723.289062 1716.042969 723.289062 C 1704.371094 723.289062 1701.972656 723.046875 1695.09375 721.128906 C 1679.742188 717.050781 1666.785156 709.613281 1654.710938 697.9375 C 1635.601562 679.460938 1625.683594 656.03125 1625.683594 629.398438 C 1625.683594 596.449219 1641.515625 567.179688 1669.265625 548.863281 C 1688.535156 536.070312 1712.367188 531.589844 1733.796875 536.707031 Z M 1994.402344 534.949219 C 2027.746094 538.46875 2053.257812 559.742188 2067.648438 595.96875 C 2069.648438 601.167969 2071.25 605.566406 2071.007812 605.726562 C 2070.847656 605.886719 2042.621094 617.640625 2008.316406 631.878906 C 1974.011719 646.035156 1945.785156 657.710938 1945.703125 657.871094 C 1944.742188 658.589844 1950.820312 667.386719 1955.539062 672.183594 C 1965.535156 682.339844 1977.53125 686.660156 1993.523438 685.941406 C 2010.074219 685.222656 2022.871094 678.261719 2034.464844 663.789062 L 2037.34375 660.269531 L 2053.417969 670.90625 C 2062.292969 676.824219 2069.488281 681.78125 2069.488281 682.023438 C 2069.488281 682.183594 2068.371094 683.859375 2066.929688 685.699219 C 2047.660156 710.574219 2021.351562 723.769531 1990.804688 723.769531 C 1953.78125 723.769531 1922.59375 704.65625 1906.519531 672.183594 C 1900.445312 659.789062 1897.644531 648.351562 1897.003906 632.996094 C 1894.765625 578.296875 1932.269531 536.070312 1984.726562 534.390625 C 1986.246094 534.308594 1990.644531 534.550781 1994.402344 534.949219 Z M 2544.082031 536.867188 C 2575.828125 544.867188 2595.976562 565.179688 2601.574219 595.007812 C 2602.695312 600.609375 2602.855469 610.363281 2602.855469 659.46875 L 2602.855469 717.371094 L 2562.871094 717.371094 L 2562.871094 706.972656 C 2562.871094 701.214844 2562.550781 696.578125 2562.152344 696.578125 C 2561.753906 696.578125 2559.992188 698.496094 2558.152344 700.894531 C 2548.71875 713.53125 2534.324219 721.128906 2516.574219 722.890625 C 2491.542969 725.527344 2466.273438 715.929688 2452.359375 698.65625 C 2443.722656 687.859375 2439.726562 676.421875 2439.726562 662.269531 C 2439.726562 652.589844 2441.164062 645.714844 2444.523438 638.675781 C 2460.675781 604.765625 2513.214844 589.570312 2555.59375 606.527344 C 2559.351562 608.046875 2562.550781 609.164062 2562.792969 609.003906 C 2563.511719 608.207031 2561.273438 597.890625 2559.433594 593.96875 C 2550.878906 575.734375 2523.128906 566.777344 2500.898438 575.097656 C 2494.421875 577.496094 2489.382812 581.332031 2485.304688 586.773438 C 2483.308594 589.492188 2481.308594 591.730469 2480.828125 591.730469 C 2480.027344 591.8125 2445.484375 577.574219 2444.523438 576.855469 C 2443.804688 576.214844 2448.921875 567.738281 2453.082031 562.460938 C 2463.957031 548.785156 2480.828125 539.265625 2500.898438 535.507812 C 2511.132812 533.589844 2533.765625 534.308594 2544.082031 536.867188 Z M 2675.222656 600.207031 C 2688.816406 633.398438 2700.171875 660.589844 2700.410156 660.589844 C 2700.652344 660.589844 2707.289062 644.273438 2715.203125 624.359375 C 2723.042969 604.527344 2733.757812 577.335938 2738.953125 563.980469 L 2748.550781 539.828125 L 2771.738281 539.828125 C 2793.410156 539.828125 2794.851562 539.90625 2794.449219 541.1875 C 2793.808594 543.265625 2681.460938 801.421875 2680.980469 801.824219 C 2680.820312 801.984375 2670.90625 802.0625 2659.070312 801.984375 L 2637.480469 801.742188 L 2679.378906 708.492188 L 2643.078125 625.960938 C 2623.164062 580.535156 2606.613281 542.625 2606.371094 541.585938 L 2605.894531 539.828125 L 2650.511719 539.828125 Z M 2675.222656 600.207031 "/>
<path style=" stroke:none;fill-rule:nonzero;fill:rgb(0%,0%,0%);fill-opacity:1;" d="M 1361.5625 221.929688 C 1353.003906 223.6875 1344.929688 228.007812 1338.132812 234.484375 C 1331.253906 241.042969 1327.574219 246.640625 1324.535156 255.519531 C 1322.457031 261.4375 1322.296875 262.875 1322.296875 273.511719 C 1322.296875 283.910156 1322.539062 285.75 1324.457031 291.585938 C 1328.214844 302.78125 1334.933594 311.742188 1344.527344 318.136719 C 1353.40625 324.054688 1359.960938 325.894531 1372.597656 325.894531 C 1383.949219 325.894531 1387.628906 325.015625 1396.585938 320.378906 C 1403.78125 316.699219 1413.457031 306.621094 1417.136719 299.105469 C 1421.695312 289.90625 1422.8125 283.910156 1422.332031 271.113281 C 1422.015625 262.957031 1421.535156 259.195312 1420.335938 255.679688 C 1414.417969 239.363281 1402.183594 227.445312 1386.589844 222.808594 C 1380.433594 220.96875 1368.199219 220.488281 1361.5625 221.929688 Z M 1361.5625 221.929688 "/>
<path style=" stroke:none;fill-rule:nonzero;fill:rgb(0%,0%,0%);fill-opacity:1;" d="M 934.789062 273.992188 L 934.789062 324.136719 L 951.019531 323.65625 C 974.609375 322.9375 982.765625 320.457031 993.242188 310.539062 C 999.398438 304.703125 1003.320312 297.824219 1005.71875 288.707031 C 1007.476562 281.667969 1007.476562 266.234375 1005.636719 258.796875 C 1001.320312 240.964844 988.683594 228.886719 970.613281 225.207031 C 966.292969 224.328125 959.976562 223.929688 949.582031 223.929688 L 934.789062 223.929688 Z M 934.789062 273.992188 "/>
<path style=" stroke:none;fill-rule:nonzero;fill:rgb(0%,0%,0%);fill-opacity:1;" d="M 1221.0625 246.640625 L 1221.0625 269.515625 L 1236.894531 269.515625 C 1255.605469 269.515625 1259.285156 268.714844 1264.722656 263.753906 C 1274.640625 254.636719 1275.199219 240.324219 1266.003906 230.886719 C 1260.003906 224.648438 1258.886719 224.328125 1238.894531 224.089844 L 1221.0625 223.847656 Z M 1221.0625 246.640625 "/>
<path style=" stroke:none;fill-rule:nonzero;fill:rgb(0%,0%,0%);fill-opacity:1;" d="M 1663.269531 243.84375 L 1663.269531 263.914062 L 1679.902344 263.914062 C 1698.453125 263.914062 1702.449219 263.195312 1707.25 259.195312 C 1718.125 250.238281 1716.925781 233.605469 1704.851562 226.488281 C 1701.25 224.328125 1701.171875 224.328125 1682.300781 224.089844 L 1663.269531 223.847656 Z M 1663.269531 243.84375 "/>
<path style=" stroke:none;fill-rule:nonzero;fill:rgb(0%,0%,0%);fill-opacity:1;" d="M 1663.269531 302.304688 L 1663.269531 324.054688 L 1682.699219 323.738281 C 1700.929688 323.496094 1702.289062 323.335938 1706.289062 321.578125 C 1719.402344 315.738281 1723 299.183594 1713.566406 288.386719 C 1707.328125 281.351562 1706.527344 281.109375 1683.5 280.871094 L 1663.269531 280.628906 Z M 1663.269531 302.304688 "/>
<path style=" stroke:none;fill-rule:nonzero;fill:rgb(0%,0%,0%);fill-opacity:1;" d="M 2247.8125 246.722656 L 2247.8125 269.515625 L 2280.996094 269.515625 L 2285.792969 267.195312 C 2294.429688 263.035156 2298.90625 256.316406 2298.988281 247.441406 C 2298.988281 240.324219 2297.070312 235.445312 2292.269531 230.644531 C 2286.113281 224.488281 2283.636719 223.929688 2264.042969 223.929688 L 2247.8125 223.929688 Z M 2247.8125 246.722656 "/>
<path style=" stroke:none;fill-rule:nonzero;fill:rgb(0%,0%,0%);fill-opacity:1;" d="M 246.050781 214.332031 C 242.453125 215.292969 235.734375 218.570312 234.457031 220.089844 C 233.738281 220.96875 260.605469 248.242188 370.875 358.523438 L 508.175781 495.839844 L 554.074219 449.9375 C 579.265625 424.742188 599.574219 403.871094 599.257812 403.710938 C 598.855469 403.472656 538.804688 369.320312 465.796875 327.894531 C 392.789062 286.386719 319.777344 244.882812 303.464844 235.605469 C 285.554688 225.449219 271.402344 217.851562 267.480469 216.492188 C 260.523438 214.011719 251.089844 213.050781 246.050781 214.332031 Z M 246.050781 214.332031 "/>
<path style=" stroke:none;fill-rule:nonzero;fill:rgb(0%,0%,0%);fill-opacity:1;" d="M 2203.828125 526.710938 L 2203.828125 574.375 L 2237.253906 573.976562 C 2273.71875 573.65625 2274.917969 573.496094 2284.753906 568.539062 C 2290.59375 565.578125 2300.109375 556.621094 2303.625 550.785156 C 2307.304688 544.707031 2309.941406 536.628906 2310.582031 529.910156 C 2312.183594 512.316406 2300.746094 492.324219 2284.515625 484.324219 C 2274.519531 479.445312 2271.320312 479.046875 2235.65625 479.046875 L 2203.828125 479.046875 Z M 2203.828125 526.710938 "/>
<path style=" stroke:none;fill-rule:nonzero;fill:rgb(0%,0%,0%);fill-opacity:1;" d="M 1300.226562 572.617188 C 1288.554688 574.214844 1278.558594 579.175781 1270.320312 587.410156 C 1259.445312 598.207031 1254.648438 609.644531 1254.007812 626.359375 C 1253.527344 638.996094 1254.96875 646.035156 1260.003906 656.511719 C 1268.5625 674.34375 1287.195312 686.179688 1306.625 686.179688 C 1320.300781 686.179688 1332.773438 680.820312 1343.089844 670.585938 C 1350.605469 663.148438 1355.164062 654.910156 1357.882812 643.792969 C 1360.359375 634.117188 1359.800781 619 1356.683594 609.804688 C 1351.726562 595.089844 1342.210938 583.972656 1329.574219 577.894531 C 1319.257812 572.9375 1309.742188 571.257812 1300.226562 572.617188 Z M 1300.226562 572.617188 "/>
<path style=" stroke:none;fill-rule:nonzero;fill:rgb(0%,0%,0%);fill-opacity:1;" d="M 1505.816406 572.695312 C 1472.3125 577.734375 1452 614.84375 1463.835938 649.550781 C 1466.714844 658.109375 1471.273438 665.148438 1478.148438 671.703125 C 1488.863281 681.863281 1502.140625 686.820312 1516.53125 685.941406 C 1539.003906 684.582031 1556.914062 669.707031 1564.191406 646.191406 C 1565.789062 641.15625 1566.109375 638.4375 1566.109375 629.398438 C 1566.109375 616.761719 1564.992188 611.644531 1559.953125 601.40625 C 1555.476562 592.128906 1545.71875 582.214844 1536.921875 577.976562 C 1526.847656 573.015625 1515.894531 571.175781 1505.816406 572.695312 Z M 1505.816406 572.695312 "/>
<path style=" stroke:none;fill-rule:nonzero;fill:rgb(0%,0%,0%);fill-opacity:1;" d="M 1713.164062 572.617188 C 1701.890625 574.296875 1692.933594 578.933594 1684.457031 587.410156 C 1677.101562 594.769531 1672.464844 602.6875 1669.585938 613.082031 C 1667.027344 622.121094 1666.945312 636.835938 1669.503906 645.714844 C 1675.183594 665.628906 1689.175781 679.863281 1707.726562 684.582031 C 1724.359375 688.820312 1741.472656 684.101562 1753.546875 671.863281 C 1762.742188 662.507812 1768.101562 650.75 1769.460938 636.835938 C 1772.898438 602.605469 1752.589844 574.617188 1722.839844 572.375 C 1719.804688 572.136719 1715.40625 572.21875 1713.164062 572.617188 Z M 1713.164062 572.617188 "/>
<path style=" stroke:none;fill-rule:nonzero;fill:rgb(0%,0%,0%);fill-opacity:1;" d="M 1976.332031 573.015625 C 1962.976562 576.695312 1950.179688 587.332031 1944.023438 599.808594 C 1940.507812 607.003906 1938.347656 615.242188 1938.347656 621.722656 C 1938.347656 625 1938.585938 625.558594 1939.785156 625.238281 C 1940.824219 624.921875 1976.730469 610.125 2019.75 592.128906 L 2022.390625 591.089844 L 2021.03125 588.53125 C 2017.671875 581.894531 2008.554688 575.496094 1999.039062 573.015625 C 1993.683594 571.578125 1981.6875 571.578125 1976.332031 573.015625 Z M 1976.332031 573.015625 "/>
<path style=" stroke:none;fill-rule:nonzero;fill:rgb(0%,0%,0%);fill-opacity:1;" d="M 2512.09375 634.597656 C 2501.058594 636.675781 2493.460938 640.433594 2487.863281 646.59375 C 2479.628906 655.550781 2479.070312 667.148438 2486.34375 675.464844 C 2490.503906 680.183594 2494.902344 682.660156 2502.976562 684.660156 C 2528.328125 691.140625 2555.515625 673.945312 2561.671875 647.554688 L 2562.710938 642.914062 L 2558.234375 640.675781 C 2544.960938 634.035156 2527.289062 631.71875 2512.09375 634.597656 Z M 2512.09375 634.597656 "/>
</g>
</svg>
