<svg width="77" height="80" viewBox="0 0 77 80" fill="none" xmlns="http://www.w3.org/2000/svg">
<path d="M75.6968 40C75.6968 61.5831 59.0002 79 38.4998 79C17.9994 79 1.30273 61.5831 1.30273 40C1.30273 18.4169 17.9994 1 38.4998 1C59.0002 1 75.6968 18.4169 75.6968 40Z" fill="white" stroke="#DB2540" stroke-width="2"/>
<path d="M16.1259 38.2428C16.0402 37.8919 16.034 37.5256 16.1075 37.1719C16.181 36.8181 16.3325 36.4861 16.5503 36.2011C16.7682 35.916 17.0467 35.6855 17.3648 35.5268C17.6829 35.3682 18.0322 35.2857 18.3861 35.2856H59.023C59.3769 35.2857 59.7262 35.3682 60.0442 35.5268C60.3623 35.6855 60.6409 35.916 60.8587 36.2011C61.0766 36.4861 61.228 36.8181 61.3016 37.1719C61.3751 37.5256 61.3688 37.8919 61.2831 38.2428L57.0633 55.488C56.8113 56.5182 56.2296 57.4328 55.4105 58.0864C54.5915 58.7399 53.5822 59.095 52.543 59.0952H24.8661C23.8269 59.095 22.8176 58.7399 21.9985 58.0864C21.1795 57.4328 20.5977 56.5182 20.3457 55.488L16.1259 38.2452V38.2428Z" stroke="#DB2540" stroke-width="2.66667" stroke-linejoin="round"/>
<path d="M31.7139 44.8096V49.5715" stroke="#DB2540" stroke-width="2.66667" stroke-linecap="round"/>
<path d="M45.6943 44.8096V49.5715" stroke="#DB2540" stroke-width="2.66667" stroke-linecap="round"/>
<path d="M24.7236 35.2857L34.044 21" stroke="#DB2540" stroke-width="2.66667" stroke-linecap="round"/>
<path d="M52.6846 35.2857L43.3643 21" stroke="#DB2540" stroke-width="2.66667" stroke-linecap="round"/>
</svg>
