<?xml version="1.0" standalone="no"?>
<!DOCTYPE svg PUBLIC "-//W3C//DTD SVG 20010904//EN"
 "http://www.w3.org/TR/2001/REC-SVG-20010904/DTD/svg10.dtd">
<svg version="1.0" xmlns="http://www.w3.org/2000/svg"
 width="929.000000pt" height="341.000000pt" viewBox="0 0 929.000000 341.000000"
 preserveAspectRatio="xMidYMid meet">

<g transform="translate(0.000000,341.000000) scale(0.100000,-0.100000)"
fill="#000000" stroke="none">
<path d="M426 3219 c-54 -13 -149 -65 -200 -110 -79 -70 -136 -182 -150 -295
-11 -95 -8 -2174 3 -2249 31 -196 193 -362 386 -394 39 -6 1521 -10 4195 -10
4540 -1 4205 -5 4336 59 105 51 180 154 204 280 6 33 10 462 10 1174 0 1218 0
1199 -56 1313 -41 84 -114 157 -202 200 l-76 38 -4205 2 c-2513 0 -4222 -3
-4245 -8z m2728 -397 c34 -20 62 -57 70 -93 6 -25 3 -27 -37 -31 -37 -4 -45
-1 -71 29 -24 27 -37 33 -68 33 -49 0 -78 -15 -78 -40 0 -26 31 -43 111 -64
36 -10 80 -26 98 -37 60 -36 77 -132 36 -195 -25 -39 -89 -64 -165 -64 -108 0
-173 45 -194 133 -5 22 -3 27 13 27 10 0 33 3 50 6 24 5 31 3 31 -9 0 -9 10
-28 23 -42 41 -48 135 -42 159 10 16 35 -2 51 -86 77 -39 11 -87 29 -107 39
-40 20 -69 69 -69 116 0 35 31 88 62 104 55 31 169 31 222 1z m922 13 c46 -8
109 -67 131 -123 27 -71 24 -176 -8 -238 -37 -72 -90 -105 -177 -112 -84 -6
-131 8 -183 55 -104 94 -88 322 28 394 55 34 110 41 209 24z m2771 -12 c36
-17 61 -50 69 -92 6 -28 4 -29 -37 -33 -28 -2 -46 1 -53 10 -37 45 -48 52 -87
52 -49 0 -79 -15 -79 -39 0 -27 17 -37 95 -59 103 -29 119 -37 148 -72 22 -26
27 -42 27 -85 0 -95 -64 -145 -185 -145 -78 0 -122 16 -157 58 -23 28 -46 88
-36 96 1 2 22 6 44 10 39 6 42 4 54 -25 24 -57 105 -77 154 -38 19 15 26 29
24 47 -3 28 -19 36 -130 67 -100 27 -148 91 -127 168 25 92 166 133 276 80z
m-4395 7 c45 -13 103 -75 117 -127 26 -94 6 -229 -42 -282 -37 -40 -75 -49
-207 -52 l-125 -3 -3 237 -2 237 112 0 c62 0 129 -5 150 -10z m321 -3 c8 -22
8 -457 0 -458 -30 -4 -86 -3 -88 2 -3 4 -8 431 -6 462 1 13 89 8 94 -6z m828
3 c56 -16 89 -58 95 -121 10 -109 -43 -158 -181 -167 l-84 -5 -3 -86 -3 -86
-45 0 -45 0 -3 238 -2 237 117 0 c65 0 134 -5 154 -10z m882 -103 c37 -62 79
-130 92 -152 l24 -40 1 153 0 152 45 0 45 0 -2 -237 -3 -237 -42 -2 c-51 -2
-49 -5 -152 166 l-81 134 0 -147 0 -147 -45 0 -45 0 0 235 0 235 48 0 47 -1
68 -112z m417 91 c2 -100 -1 -443 -4 -445 -10 -10 -78 -9 -81 1 -2 6 -5 113
-7 239 l-3 227 48 0 c42 0 47 -2 47 -22z m392 12 c49 -14 88 -61 88 -106 0
-42 -22 -89 -47 -98 -14 -6 -12 -10 14 -26 18 -10 37 -28 42 -39 16 -29 13
-99 -5 -131 -32 -53 -59 -60 -221 -61 l-148 -1 -3 236 -2 236 122 0 c68 0 140
-5 160 -10z m298 1 c6 -1 10 -72 10 -191 l0 -190 116 0 115 0 -3 -42 -3 -41
-160 1 -160 2 -3 232 -2 233 40 -1 c22 -1 45 -2 50 -3z m680 -31 c0 -25 -5
-40 -12 -40 -7 -1 -61 -1 -120 -1 -118 0 -125 -4 -124 -59 l1 -35 118 -3 117
-3 0 -44 0 -45 -119 0 -118 0 -2 -60 -2 -60 136 0 135 0 0 -39 c0 -29 -5 -40
-16 -43 -9 -2 -90 -2 -180 0 l-164 3 0 234 0 235 175 0 175 0 0 -40z m854
-130 c3 -177 9 -204 52 -220 40 -16 71 -12 98 13 25 22 26 24 27 187 1 91 4
171 6 178 3 7 23 12 49 12 l44 0 0 -189 c0 -179 -1 -190 -23 -222 -32 -49 -79
-69 -160 -69 -81 0 -128 19 -160 64 -21 29 -22 43 -25 224 l-4 193 47 -3 47
-3 2 -165z m719 147 c40 -26 58 -59 59 -112 1 -53 -21 -91 -68 -115 -16 -8
-31 -16 -33 -18 -3 -1 9 -17 26 -35 34 -36 113 -158 108 -167 -2 -3 -28 -3
-58 0 l-55 5 -52 77 c-57 87 -82 108 -122 108 l-28 0 0 -93 c0 -52 -2 -96 -4
-98 -3 -2 -25 -3 -50 -1 l-46 4 0 235 0 235 148 -4 c121 -2 153 -6 175 -21z
m-6166 -63 c12 -31 -15 -156 -47 -221 -39 -79 -136 -180 -205 -215 -57 -29
-148 -52 -185 -47 -24 4 -25 7 -23 73 4 174 170 355 374 410 71 19 78 19 86 0z
m-697 -529 c47 -13 122 -35 167 -49 l82 -25 63 18 c35 11 99 31 143 46 158 54
339 44 482 -27 58 -28 173 -125 173 -145 0 -5 -14 -17 -32 -27 -79 -47 -160
-146 -187 -227 -72 -220 17 -443 223 -559 66 -38 66 -30 0 -167 -49 -102 -166
-265 -239 -332 -110 -102 -211 -115 -398 -54 -159 53 -239 52 -397 -2 -199
-68 -284 -52 -415 81 -294 297 -434 771 -324 1101 27 82 103 198 165 251 93
81 247 140 364 141 25 0 83 -11 130 -24z m4655 -497 c42 -14 44 -22 25 -74 -9
-23 -10 -23 -52 -8 -24 9 -72 16 -108 16 -106 1 -160 -39 -160 -118 0 -57 41
-95 144 -135 174 -66 232 -129 224 -245 -5 -87 -37 -133 -123 -175 -59 -29
-75 -32 -153 -32 -82 0 -206 24 -217 43 -4 6 12 68 20 78 2 2 30 -6 64 -18 71
-23 176 -27 225 -6 47 20 76 61 76 108 0 80 -34 113 -176 167 -85 33 -155 84
-179 132 -8 15 -15 51 -15 80 0 93 63 166 168 196 56 15 179 11 237 -9z
m-2321 -340 c71 -194 136 -368 143 -385 l13 -33 -59 0 -59 0 -43 120 -43 120
-147 0 -147 0 -42 -120 -43 -120 -53 0 c-30 0 -54 3 -54 6 0 8 269 745 276
756 3 4 33 8 67 8 l62 0 129 -352z m2746 132 l80 0 0 -40 0 -40 -81 0 -81 0 4
-173 c4 -215 9 -227 94 -227 l55 0 -3 -37 c-3 -34 -7 -38 -38 -45 -48 -11
-109 -2 -148 23 -55 32 -62 65 -62 273 l0 185 -47 3 c-48 3 -48 3 -48 38 0 35
1 35 47 38 l47 3 3 67 3 66 45 11 45 11 3 -78 3 -78 79 0z m-2037 -23 c54 -32
101 -99 117 -169 15 -59 8 -160 -14 -211 -17 -43 -80 -113 -117 -133 -92 -47
-213 -38 -280 23 l-39 35 0 -151 0 -151 -55 0 -55 0 0 390 0 390 50 0 50 0 0
-47 0 -47 33 31 c55 54 111 74 193 70 55 -3 83 -10 117 -30z m701 -1 c142 -83
170 -326 53 -453 -48 -52 -77 -69 -146 -84 -74 -16 -152 3 -202 48 l-39 35 0
-151 0 -151 -55 0 -55 0 0 390 0 390 50 0 50 0 0 -47 0 -47 33 31 c60 57 108
74 199 69 50 -2 78 -10 112 -30z m1882 19 c60 -18 127 -72 157 -129 18 -34 22
-57 22 -141 0 -84 -4 -107 -22 -141 -49 -93 -154 -149 -273 -148 -203 3 -324
180 -264 385 21 71 100 151 171 173 63 19 147 20 209 1z m614 -33 l0 -47 -41
-1 c-44 -2 -80 -23 -113 -68 -19 -25 -21 -44 -24 -212 l-3 -184 -55 0 -54 0 0
253 c0 138 -3 262 -6 275 -6 21 -3 22 45 22 l51 0 0 -57 c1 -48 3 -55 12 -38
34 62 96 104 156 105 32 0 32 0 32 -48z m424 36 c89 -27 156 -132 156 -245 l0
-53 -211 0 -212 0 6 -35 c14 -83 80 -140 175 -152 44 -5 134 7 174 22 13 5 19
-1 26 -27 5 -18 7 -36 6 -39 -8 -15 -115 -33 -194 -32 -137 0 -225 51 -270
156 -28 64 -30 163 -5 237 22 67 92 140 156 163 54 19 138 21 193 5z"/>
<path d="M3921 2734 c-79 -66 -63 -243 26 -280 98 -41 173 23 176 150 2 103
-42 156 -130 156 -30 0 -50 -7 -72 -26z"/>
<path d="M2286 2745 c-3 -9 -6 -79 -6 -156 l0 -139 66 0 c36 0 74 5 86 11 63
34 65 243 1 277 -10 6 -46 13 -80 17 -50 5 -62 3 -67 -10z"/>
<path d="M3438 2754 c-5 -4 -8 -34 -8 -66 l0 -58 65 0 c52 0 69 4 85 20 47 47
12 97 -75 106 -33 3 -63 3 -67 -2z"/>
<path d="M5110 2706 l0 -56 66 0 c83 0 104 11 104 54 0 40 -10 45 -102 53
l-68 6 0 -57z"/>
<path d="M5110 2511 l0 -61 78 0 c87 0 112 14 112 62 0 39 -24 51 -111 56
l-79 4 0 -61z"/>
<path d="M7620 2698 l0 -58 71 0 c88 0 109 10 109 54 0 48 -20 59 -105 61
l-75 1 0 -58z"/>
<path d="M3062 1481 c-30 -86 -56 -164 -59 -173 -5 -17 5 -18 117 -18 107 0
121 2 116 16 -36 95 -106 297 -106 309 0 45 -21 4 -68 -134z"/>
<path d="M3795 1436 c-68 -30 -105 -101 -105 -201 0 -108 42 -172 128 -195
147 -39 259 111 212 282 -29 101 -141 156 -235 114z"/>
<path d="M4495 1434 c-45 -23 -66 -45 -86 -89 -21 -44 -25 -139 -9 -194 23
-83 122 -135 209 -111 102 27 156 154 121 282 -29 102 -146 158 -235 112z"/>
<path d="M6415 1432 c-43 -27 -62 -52 -80 -101 -30 -85 -15 -178 38 -238 117
-133 307 -40 307 151 0 71 -23 127 -69 171 -28 25 -41 30 -99 33 -53 2 -73 -1
-97 -16z"/>
<path d="M7490 1449 c-47 -19 -86 -66 -104 -126 l-7 -23 161 0 162 0 -7 33
c-21 97 -117 151 -205 116z"/>
</g>
</svg>
