<svg width="189" height="33" viewBox="0 0 189 33" fill="none" xmlns="http://www.w3.org/2000/svg">
<g opacity="0.9">
<path fill-rule="evenodd" clip-rule="evenodd" d="M2.15366 3.81542C2.15366 3.16546 2.41185 2.54212 2.87144 2.08253C3.33103 1.62294 3.95437 1.36475 4.60432 1.36475H29.0337C29.3558 1.36422 29.6748 1.42723 29.9725 1.55017C30.2702 1.67311 30.5408 1.85356 30.7687 2.0812C30.9965 2.30883 31.1773 2.57918 31.3006 2.87676C31.4238 3.17434 31.4872 3.49332 31.487 3.81542V28.2447C31.4873 28.5669 31.4242 28.886 31.3011 29.1837C31.178 29.4814 30.9974 29.752 30.7697 29.9798C30.5419 30.2077 30.2715 30.3884 29.9738 30.5117C29.6762 30.6349 29.3572 30.6983 29.035 30.6981H4.60432C4.28238 30.6981 3.9636 30.6347 3.66619 30.5114C3.36877 30.3882 3.09855 30.2075 2.87097 29.9798C2.64339 29.7521 2.4629 29.4818 2.33982 29.1843C2.21674 28.8868 2.15348 28.568 2.15366 28.2461V3.81542ZM13.7643 12.5487H17.7363V14.5434C18.3097 13.3968 19.7763 12.3647 21.9803 12.3647C26.2057 12.3647 27.207 14.6488 27.207 18.8394V26.6021H22.931V19.7941C22.931 17.4074 22.3577 16.0608 20.9017 16.0608C18.8817 16.0608 18.0417 17.5128 18.0417 19.7941V26.6021H13.7643V12.5487ZM6.43099 26.4194H10.7083V12.3647H6.43099V26.4181V26.4194ZM11.3203 7.78075C11.3284 8.14698 11.2632 8.51113 11.1286 8.85184C10.9941 9.19254 10.7928 9.50293 10.5366 9.76479C10.2805 10.0267 9.97459 10.2347 9.63693 10.3768C9.29927 10.5188 8.93664 10.592 8.57032 10.592C8.204 10.592 7.84138 10.5188 7.50372 10.3768C7.16606 10.2347 6.86017 10.0267 6.60401 9.76479C6.34786 9.50293 6.14658 9.19254 6.012 8.85184C5.87743 8.51113 5.81226 8.14698 5.82032 7.78075C5.83615 7.06189 6.13284 6.3778 6.64684 5.875C7.16084 5.37219 7.85129 5.09064 8.57032 5.09064C9.28936 5.09064 9.97981 5.37219 10.4938 5.875C11.0078 6.3778 11.3045 7.06189 11.3203 7.78075Z" fill="white"/>
<path d="M69.816 10.6956C66.8781 10.6956 64.4805 13.0933 64.4805 16.0312C64.4805 18.9692 66.8781 21.3669 69.816 21.3669C72.7539 21.3669 75.1515 18.9692 75.1515 16.0312C75.1515 13.0933 72.7539 10.6956 69.816 10.6956ZM85.8185 16.0312C85.8185 13.8218 85.8385 11.6323 85.7145 9.42679C85.5904 6.86506 85.006 4.59152 83.1328 2.71826C81.2555 0.840987 78.986 0.260595 76.4244 0.136511C74.2149 0.012427 72.0255 0.0324406 69.82 0.0324406C67.6106 0.0324406 65.4211 0.012427 63.2157 0.136511C60.654 0.260595 58.3805 0.844989 56.5073 2.71826C54.63 4.59552 54.0497 6.86506 53.9256 9.42679C53.8015 11.6363 53.8215 13.8258 53.8215 16.0312C53.8215 18.2367 53.8015 20.4302 53.9256 22.6357C54.0497 25.1974 54.634 27.471 56.5073 29.3442C58.3845 31.2215 60.654 31.8019 63.2157 31.926C65.4251 32.0501 67.6146 32.0301 69.82 32.0301C72.0295 32.0301 74.2189 32.0501 76.4244 31.926C78.986 31.8019 81.2595 31.2175 83.1328 29.3442C85.01 27.467 85.5904 25.1974 85.7145 22.6357C85.8425 20.4302 85.8185 18.2407 85.8185 16.0312ZM69.816 24.2408C65.273 24.2408 61.6066 20.5743 61.6066 16.0312C61.6066 11.4882 65.273 7.8217 69.816 7.8217C74.359 7.8217 78.0254 11.4882 78.0254 16.0312C78.0254 20.5743 74.359 24.2408 69.816 24.2408ZM78.3616 9.40277C77.3009 9.40277 76.4444 8.54619 76.4444 7.48548C76.4444 6.42476 77.3009 5.56818 78.3616 5.56818C79.4223 5.56818 80.2789 6.42476 80.2789 7.48548C80.2792 7.73735 80.2298 7.98681 80.1336 8.21957C80.0373 8.45233 79.8961 8.66381 79.718 8.84191C79.5399 9.02001 79.3285 9.16123 79.0957 9.25747C78.863 9.35371 78.6135 9.40309 78.3616 9.40277Z" fill="white"/>
<path fill-rule="evenodd" clip-rule="evenodd" d="M106.82 16.1206C106.82 24.0753 112.598 30.6899 120.154 32.0312V20.4753H116.154V16.0312H120.154V12.4753C120.154 8.47525 122.731 6.25392 126.376 6.25392C127.531 6.25392 128.776 6.43125 129.931 6.60858V10.6979H127.887C125.931 10.6979 125.487 11.6753 125.487 12.9206V16.0312H129.754L129.043 20.4753H125.487V32.0312C133.043 30.6899 138.82 24.0766 138.82 16.1206C138.82 7.27125 131.62 0.03125 122.82 0.03125C114.02 0.03125 106.82 7.27125 106.82 16.1206Z" fill="white"/>
<path d="M188.82 3.47118C187.754 4.05248 186.608 4.44526 185.404 4.62279C186.647 3.70809 187.576 2.26846 188.02 0.572519C186.852 1.4256 185.574 2.02608 184.242 2.34785C183.345 1.17089 182.159 0.390785 180.865 0.128646C179.572 -0.133494 178.244 0.137 177.088 0.898132C175.933 1.65926 175.014 2.86845 174.474 4.33796C173.934 5.80746 173.804 7.45507 174.103 9.02498C171.737 8.87886 169.423 8.12247 167.31 6.80488C165.198 5.4873 163.334 3.63797 161.84 1.37692C161.329 2.46097 161.035 3.71784 161.035 5.05641C161.034 6.26143 161.276 7.44799 161.737 8.51081C162.199 9.57364 162.867 10.4799 163.681 11.1491C162.737 11.1121 161.813 10.7981 160.986 10.2331V10.3274C160.986 12.0175 161.462 13.6556 162.332 14.9637C163.201 16.2718 164.413 17.1694 165.759 17.5042C164.883 17.7959 163.964 17.8389 163.072 17.6298C163.452 19.0841 164.192 20.3557 165.189 21.2668C166.186 22.1779 167.389 22.6827 168.63 22.7107C166.523 24.746 163.92 25.8499 161.241 25.8451C160.766 25.8452 160.292 25.8111 159.82 25.7429C162.54 27.894 165.706 29.0357 168.939 29.0312C179.885 29.0312 185.869 17.8796 185.869 8.20801C185.869 7.8938 185.862 7.57644 185.851 7.26222C187.015 6.22683 188.019 4.9447 188.818 3.47589L188.82 3.47118Z" fill="white"/>
</g>
</svg>
